<?xml version="1.0" standalone="no"?>
<!DOCTYPE svg PUBLIC "-//W3C//DTD SVG 20010904//EN"
 "http://www.w3.org/TR/2001/REC-SVG-20010904/DTD/svg10.dtd">
<svg version="1.0" xmlns="http://www.w3.org/2000/svg"
 width="1222.000000pt" height="1222.000000pt" viewBox="0 0 1222.000000 1222.000000"
 preserveAspectRatio="xMidYMid meet">

<g transform="translate(0.000000,1222.000000) scale(0.100000,-0.100000)"
fill="#000000" stroke="none">
<path d="M5845 12174 c-893 -48 -1685 -255 -2455 -640 -1169 -586 -2118 -1535
-2704 -2704 -348 -696 -549 -1406 -623 -2200 -23 -255 -23 -785 0 -1040 74
-794 275 -1504 623 -2200 586 -1169 1535 -2118 2704 -2704 696 -348 1406 -549
2200 -623 255 -23 785 -23 1040 0 794 74 1504 275 2200 623 1169 586 2118
1535 2704 2704 348 696 549 1406 623 2200 23 255 23 785 0 1040 -74 794 -275
1504 -623 2200 -422 842 -1033 1572 -1789 2138 -906 678 -1974 1086 -3105
1187 -170 15 -653 26 -795 19z m1795 -3594 l0 -580 -393 0 c-240 0 -416 -4
-453 -11 -119 -22 -201 -88 -258 -208 l-31 -66 -3 -227 -3 -228 555 0 c469 0
556 -2 556 -14 0 -16 -167 -1069 -175 -1103 l-5 -23 -465 0 -465 0 0 -1520 0
-1520 -580 0 -580 0 0 1520 0 1520 -380 0 -380 0 0 570 0 570 379 0 378 0 6
363 c5 362 14 471 52 633 120 519 487 815 1095 883 152 18 152 18 663 19 l487
2 0 -580z"/>
</g>
</svg>
